<svg width="20" height="24" viewBox="0 0 26 30" fill="none" xmlns="http://www.w3.org/2000/svg">
<path d="M17.6286 0H5.57941C3.81914 0 2.38646 1.43367 2.38646 3.19295V14.9999H2.0746C1.36415 14.9999 0.787964 15.5756 0.787964 16.2866V24.0896C0.787964 24.8006 1.36408 25.3762 2.0746 25.3762H2.38646V26.807C2.38646 28.5682 3.81914 29.9999 5.57941 29.9999H22.0201C23.7792 29.9999 25.2121 28.5681 25.2121 26.807V7.55687L17.6286 0ZM4.16335 17.6948C4.54042 17.6311 5.07043 17.583 5.81717 17.583C6.5718 17.583 7.10965 17.7271 7.47104 18.0164C7.81625 18.2891 8.04921 18.7391 8.04921 19.2688C8.04921 19.7983 7.87269 20.2485 7.5515 20.5534C7.13373 20.9467 6.51593 21.1232 5.79321 21.1232C5.63237 21.1232 5.4882 21.1152 5.37545 21.0996V23.0345H4.16335V17.6948ZM22.0201 28.0445H5.57941C4.89783 28.0445 4.3428 27.4895 4.3428 26.807V25.3762H19.6688C20.3794 25.3762 20.9555 24.8006 20.9555 24.0896V16.2866C20.9555 15.5756 20.3794 14.9999 19.6688 14.9999H4.3428V3.19295C4.3428 2.51236 4.89789 1.95734 5.57941 1.95734L16.8971 1.94551V6.12892C16.8971 7.35085 17.8885 8.34324 19.1114 8.34324L23.2095 8.33148L23.2556 26.8069C23.2556 27.4895 22.7016 28.0445 22.0201 28.0445ZM8.83079 23.01V17.6948C9.28035 17.6232 9.8663 17.583 10.4847 17.583C11.5123 17.583 12.1787 17.7674 12.7009 18.1606C13.2628 18.5784 13.6158 19.2443 13.6158 20.2003C13.6158 21.2359 13.2388 21.9508 12.7165 22.392C12.1468 22.8657 11.2794 23.0903 10.2199 23.0903C9.5853 23.0903 9.13575 23.0501 8.83079 23.01ZM17.5934 19.8631V20.8584H15.6502V23.0345H14.4219V17.6232H17.7297V18.6264H15.6502V19.8631H17.5934Z" fill="#FF6231"/>
</svg>

