<svg width="60" height="60" viewBox="0 0 60 60" fill="none" xmlns="http://www.w3.org/2000/svg">
<mask id="mask0_1119_1344" style="mask-type:alpha" maskUnits="userSpaceOnUse" x="0" y="0" width="60" height="60">
<rect width="60" height="60" fill="#C4C4C4"/>
</mask>
<g mask="url(#mask0_1119_1344)">
<path fill-rule="evenodd" clip-rule="evenodd" d="M27.1315 0.667814L17.064 1.25578L10.2734 8.6954L3.49127 16.131L5.27492 19.8498C4.94046 20.1259 4.80982 20.569 4.98591 20.9361C5.07616 21.1089 5.21975 21.248 5.39527 21.3329C5.57078 21.4177 5.76884 21.4437 5.95992 21.407L5.97079 21.493L6.11744 22.6067L7.38214 22.0044L6.60077 21.193L6.54048 21.1305C6.6892 21.0056 6.79326 20.8357 6.8371 20.6464C6.88093 20.457 6.86218 20.2583 6.78366 20.0801C6.60757 19.7129 6.17905 19.535 5.75381 19.6218L4.06596 16.1026L11.8891 15.6488L12.8735 17.7013C14.797 14.5912 17.7072 11.9319 21.3492 10.1976C24.9913 8.46334 28.9004 7.88704 32.5355 8.34553L31.5475 6.28541L37.2103 0.0838395L27.1315 0.667814Z" fill="url(#paint0_linear_1119_1344)"/>
<path d="M20.2805 55.7038C23.8871 54.738 25.7282 52.8315 26.6644 51.2263C27.5252 49.7506 27.6207 48.5298 27.6207 48.5298V32.5791C27.615 32.1691 27.7721 31.7735 28.0575 31.479C28.343 31.1845 28.7336 31.0151 29.1438 31.0078H29.2066C29.4132 31.005 29.6183 31.0429 29.8102 31.1194C30.0021 31.1958 30.177 31.3093 30.325 31.4533C30.473 31.5974 30.5911 31.7692 30.6726 31.9589C30.7541 32.1486 30.7974 32.3525 30.8001 32.559V32.5966C30.8001 38.1823 30.8076 43.7668 30.8227 49.3499C34.5575 49.3123 37.0394 45.1902 37.2317 44.8599V32.5853C37.2317 32.164 37.3992 31.7598 37.6973 31.4619C37.9954 31.1639 38.3998 30.9965 38.8214 30.9965C39.243 30.9965 39.6473 31.1639 39.9454 31.4619C40.2436 31.7598 40.411 32.164 40.411 32.5853V38.7948L40.4487 38.8965C40.4487 40.1014 40.4513 41.3063 40.4563 42.5112C41.0636 42.5039 41.6652 42.3939 42.2357 42.1859C44.9627 41.1937 46.7032 38.3012 46.8628 38.0262V29.7858L46.761 29.5572L46.8603 29.7795C46.7772 28.1036 46.0539 26.5234 44.8395 25.3648C43.625 24.2062 42.012 23.5575 40.3331 23.5524H40.1132C38.4404 23.5574 36.8376 24.2239 35.6548 25.4062C34.4721 26.5885 33.8056 28.1905 33.801 29.8624C33.7988 28.7974 33.5274 27.7503 33.012 26.8182C32.4966 25.8861 31.7539 25.0993 30.8528 24.5308C29.5786 23.7898 28.44 23.5135 27.4297 23.5537H27.4372C25.8081 23.5708 24.2482 24.2146 23.0818 25.3514C21.9154 26.4881 21.2321 28.0304 21.174 29.6577V47.0478C21.1086 46.9736 21.0483 46.8983 20.9792 46.8229C18.3169 43.6641 16.8852 39.6509 16.9473 35.5212C17.0094 31.3916 18.5612 27.4232 21.3173 24.3458C24.0734 21.2684 27.8484 19.2889 31.9483 18.7714C36.0482 18.2538 40.1972 19.233 43.6323 21.5289C47.0674 23.8248 49.5577 27.283 50.6452 31.2675C51.7327 35.2521 51.3443 39.4951 49.5515 43.2163C47.7586 46.9374 44.6818 49.8866 40.8869 51.5214C37.092 53.1562 32.8341 53.3668 28.8962 52.1143C28.8962 52.1143 26.3929 56.3017 22.8391 57.2575C26.3171 59.0798 30.1869 60.0281 34.1139 60.0206C47.5338 60.0206 58.4153 49.1465 58.4153 35.7353C58.4153 22.3241 47.5338 11.4487 34.1139 11.4487C20.6939 11.4487 9.81373 22.3229 9.81373 35.7353C9.81117 39.662 10.7623 43.5306 12.5854 47.009C14.4085 50.4874 17.0491 53.4715 20.2805 55.7051" fill="url(#paint1_linear_1119_1344)"/>
<path d="M20.2805 55.7038C23.8871 54.7379 25.7282 52.8314 26.6644 51.2262C26.7775 51.0328 26.8767 50.8432 26.9647 50.6611C25.8764 48.3827 23.3204 43.2509 21.1715 40.6134V47.0451C21.1061 46.971 21.0458 46.8957 20.9767 46.8203C19.5743 45.1629 18.4989 43.255 17.8074 41.1974C16.8347 49.7643 10.0927 39.4227 9.89038 33.7709C9.83928 34.4164 9.81373 35.0704 9.81373 35.7327C9.81106 39.6594 10.7621 43.5281 12.5853 47.0065C14.4084 50.4849 17.0491 53.469 20.2805 55.7025" fill="url(#paint2_linear_1119_1344)"/>
<path d="M20.2806 55.7039C23.8872 54.738 25.7282 52.8315 26.6644 51.2264C27.5253 49.7506 27.6208 48.5298 27.6208 48.5298V32.5791C27.615 32.1691 27.7721 31.7735 28.0576 31.4791C28.3431 31.1846 28.7337 31.0151 29.1438 31.0079H29.2067C29.4132 31.005 29.6183 31.0429 29.8102 31.1194C30.0021 31.1958 30.1771 31.3093 30.3251 31.4534C30.473 31.5974 30.5912 31.7692 30.6727 31.9589C30.7542 32.1486 30.7975 32.3525 30.8001 32.559V32.5967C30.8001 38.1823 30.8077 43.7668 30.8228 49.35C34.5576 49.3123 37.0395 45.1902 37.2318 44.8599V32.5854C37.2318 32.164 37.3992 31.7599 37.6974 31.4619C37.9955 31.1639 38.3998 30.9966 38.8214 30.9966C39.243 30.9966 39.6474 31.1639 39.9455 31.4619C40.2436 31.7599 40.4111 32.164 40.4111 32.5854V38.7948L40.4488 38.8966C40.4488 40.1015 40.4513 41.3063 40.4564 42.5112C41.0636 42.5039 41.6653 42.3939 42.2358 42.1859C44.9628 41.1937 46.7033 38.3012 46.8629 38.0262V29.7858L46.7611 29.5572L46.8603 29.7795C46.7773 28.1036 46.054 26.5234 44.8395 25.3648C43.6251 24.2062 42.0121 23.5575 40.3332 23.5525H40.1133C38.4405 23.5574 36.8376 24.2239 35.6549 25.4062C34.4722 26.5885 33.8057 28.1906 33.8011 29.8624C33.7989 28.7975 33.5275 27.7503 33.0121 26.8182C32.4967 25.8861 31.754 25.0993 30.8529 24.5309C29.5787 23.7898 28.4401 23.5135 27.4297 23.5537H27.4373C25.8082 23.5708 24.2483 24.2146 23.0819 25.3514C21.9154 26.4882 21.2322 28.0304 21.1741 29.6577V47.0478C21.0999 49.3361 18.1581 54.3223 13.3601 48.369C15.1317 51.269 17.4897 53.7672 20.2831 55.7039" fill="url(#paint3_linear_1119_1344)"/>
<path d="M29.1988 16.4035C35.461 16.3957 41.4735 18.8567 45.9313 23.2523C46.5162 23.8077 47.0621 24.4027 47.565 25.0332C51.2793 29.5139 53.2256 35.1975 53.0371 41.0131C52.8487 46.8287 50.5386 52.3745 46.5421 56.6056C50.1618 54.4543 53.1595 51.3992 55.2411 47.7403C57.3226 44.0813 58.4164 39.9443 58.4151 35.7353C58.4151 22.3229 47.5361 11.4487 34.1161 11.4487C30.2601 11.4469 26.4591 12.3634 23.028 14.1223C19.597 15.8812 16.6347 18.4319 14.3865 21.563C18.5992 18.2144 23.825 16.3952 29.2076 16.4035" fill="url(#paint4_linear_1119_1344)"/>
</g>
<defs>
<linearGradient id="paint0_linear_1119_1344" x1="42.9836" y1="11.5683" x2="-5.51439" y2="3.97606" gradientUnits="userSpaceOnUse">
<stop stop-color="#008AE4"/>
<stop offset="1" stop-color="#A6DCFF"/>
</linearGradient>
<linearGradient id="paint1_linear_1119_1344" x1="58.443" y1="52.0452" x2="-19.9405" y2="50.534" gradientUnits="userSpaceOnUse">
<stop stop-color="#0084E4"/>
<stop offset="1" stop-color="#A6DCFF"/>
</linearGradient>
<linearGradient id="paint2_linear_1119_1344" x1="11.5693" y1="60.5857" x2="2.67641" y2="45.6467" gradientUnits="userSpaceOnUse">
<stop stop-color="#008AE4"/>
<stop offset="1" stop-color="#A6DCFF"/>
</linearGradient>
<linearGradient id="paint3_linear_1119_1344" x1="39.216" y1="60.4602" x2="6.01066" y2="41.6453" gradientUnits="userSpaceOnUse">
<stop stop-color="#008AE4"/>
<stop offset="1" stop-color="#A6DCFF"/>
</linearGradient>
<linearGradient id="paint4_linear_1119_1344" x1="78.675" y1="39.2344" x2="22.6927" y2="48.5606" gradientUnits="userSpaceOnUse">
<stop stop-color="#007EF2"/>
<stop offset="1" stop-color="#A6DCFF"/>
</linearGradient>
</defs>
</svg>
